<svg xmlns="http://www.w3.org/2000/svg" width="173.276" height="32.296" viewBox="0 0 173.276 32.296">
  <g id="Logo" transform="translate(-109.625 -400.799)">
    <g id="Layer_1" data-name="Layer 1" transform="translate(169.28 408.37)">
      <path id="Tracé_34" data-name="Tracé 34" d="M331.229,426.361h-3.806l-3.282,13.819-2.818-13.816h-4.377L314.1,440.18l-3.254-13.816h-3.83l5.2,18.984h3.968l2.954-14.31,2.927,14.31h3.994l5.17-18.984Zm89.408,15.677c-1.808.109-2.712-.633-2.712-2.6v-4.98h2.545v-3.2h-2.545v-3.584h-3.611v3.584h-1.7v3.2h1.7v4.952c0,3.857,2.187,6.348,6.32,5.909v-3.283Zm-9.657-4.926c0-3.72-2.19-6.21-5.5-6.21a4.649,4.649,0,0,0-3.639,1.723v-1.368h-3.448v14.09h3.616v-8.236a2.674,2.674,0,0,1,2.736-2.792,2.507,2.507,0,0,1,2.626,2.792v8.236h3.616v-8.236Zm-15.869-5.854H391.5v8.235a2.667,2.667,0,0,1-2.739,2.767,2.512,2.512,0,0,1-2.626-2.764v-8.235h-3.611V439.5c0,3.694,2.216,6.184,5.553,6.184a4.611,4.611,0,0,0,3.584-1.615v1.286h3.447V431.256Zm-21.777-.355a7.392,7.392,0,1,0,7.114,7.413,7.182,7.182,0,0,0-7.114-7.413Zm0,11.464c-1.915,0-3.475-1.642-3.475-4.022,0-2.436,1.56-4.131,3.475-4.131s3.474,1.7,3.474,4.131C376.808,440.724,375.249,442.366,373.334,442.366Zm-8.7-3.038h-3.887a5.309,5.309,0,0,1-4.733,3.065c-3.119,0-5.581-3.009-5.581-6.62,0-3.585,2.462-6.595,5.581-6.595a5.232,5.232,0,0,1,4.733,3.009h3.912a8.614,8.614,0,0,0-8.646-6.318c-5.169,0-9.193,4.349-9.193,9.9s4.024,9.9,9.193,9.9a8.722,8.722,0,0,0,8.618-6.347Zm-19.588.383H334.4a3.584,3.584,0,0,0,3.526,2.79,3.272,3.272,0,0,0,2.983-1.642h3.858a6.677,6.677,0,0,1-6.814,4.815,7.389,7.389,0,0,1,0-14.773c4.158,0,7.606,3.227,7.087,8.81Zm-10.588-2.954h7a3.526,3.526,0,0,0-3.526-2.68,3.6,3.6,0,0,0-3.481,2.68Z" transform="translate(-307.016 -425.862)" fill="#fff" fill-rule="evenodd"/>
    </g>
    <g id="Layer_2" data-name="Layer 2" transform="translate(109.625 400.799)">
      <path id="Tracé_35" data-name="Tracé 35" d="M154.959,414.018l-8.523,8.523-3.5,3.5-.023.023-4.084-4.086,3.518-3.518,12.707-12.708c2.692-2.693-1.375-6.752-4.068-4.068l-11.543,11.543h0l-7.361,7.362-3.5,3.5-.022.022h0l-1.952,1.952-.022-.023-3.5-3.5-8.522-8.522c-2.69-2.691-6.757,1.37-4.068,4.068l13.916,13.906c.051.057.1.115.161.172a3.27,3.27,0,0,0,1.341.822,2.449,2.449,0,0,0,2.2-.378l.09-.054.037-.037a3.976,3.976,0,0,0,.37-.326l6.147-6.147,6.147,6.147a3.878,3.878,0,0,0,.371.326l.036.037c.028.018.057.036.09.054a2.447,2.447,0,0,0,2.2.378,3.283,3.283,0,0,0,1.342-.822c.055-.056.11-.114.161-.172l13.906-13.906c2.692-2.694-1.374-6.755-4.068-4.068Zm-36.7-4.486.033-.031c-1.814-2.523,1.479-5.813,4-4l.033-.031,6.3,6.3c2.692,2.692-1.373,6.753-4.068,4.064l-1.035-1.045h0l-4.865-4.865h0Z" transform="translate(-109.625 -400.799)" fill="#2fa6f2" fill-rule="evenodd"/>
    </g>
  </g>
</svg>
