<svg xmlns="http://www.w3.org/2000/svg" width="12.294" height="22.67" viewBox="0 0 12.294 22.67">
  <path id="attachment-clip" d="M6.147,0A6.154,6.154,0,0,0,0,6.147V17.786a.752.752,0,1,0,1.5,0V6.147a4.644,4.644,0,0,1,9.288,0v12A3.025,3.025,0,0,1,7.77,21.167c-.012,0-.024.007-.036.007s-.024-.007-.037-.007a3.025,3.025,0,0,1-3.021-3.021v-7.2a1.471,1.471,0,1,1,2.943,0v6.837a.752.752,0,1,0,1.5,0V10.949a2.975,2.975,0,1,0-5.949,0v7.2A4.53,4.53,0,0,0,7.7,22.67c.013,0,.023-.007.037-.007s.024.007.036.007a4.53,4.53,0,0,0,4.525-4.524v-12A6.154,6.154,0,0,0,6.147,0Z" transform="translate(0 0)" fill="#c2c8d0"/>
</svg>
