<svg xmlns="http://www.w3.org/2000/svg" width="18.836" height="22.149" viewBox="0 0 18.836 22.149">
  <path id="bell" d="M71.882,17.626A3.5,3.5,0,0,1,70.758,16.2a15.45,15.45,0,0,1-1.172-6.511c0-.008,0-.017,0-.025a6.284,6.284,0,0,0-3.976-5.7v-1.5A2.565,2.565,0,0,0,62.962,0h-.219A2.565,2.565,0,0,0,60.1,2.467v1.5a6.282,6.282,0,0,0-3.976,5.725A15.45,15.45,0,0,1,54.947,16.2a3.5,3.5,0,0,1-1.124,1.424.619.619,0,0,0-.372.718.7.7,0,0,0,.7.507h5.112a3.6,3.6,0,0,0,7.181,0h5.112a.7.7,0,0,0,.7-.507A.619.619,0,0,0,71.882,17.626ZM61.49,2.467A1.214,1.214,0,0,1,62.743,1.3h.219a1.214,1.214,0,0,1,1.253,1.167V3.545a7.25,7.25,0,0,0-2.725,0V2.467Zm1.362,18.382a2.133,2.133,0,0,1-2.2-2h4.391A2.132,2.132,0,0,1,62.852,20.849Zm2.808-3.3H55.739a6.694,6.694,0,0,0,.365-.6,15.438,15.438,0,0,0,1.409-7.263,5.352,5.352,0,0,1,10.677,0c0,.008,0,.016,0,.024A15.408,15.408,0,0,0,69.6,16.954a6.7,6.7,0,0,0,.366.6Z" transform="translate(-53.434 0)" fill="#fff"/>
</svg>
