<svg xmlns="http://www.w3.org/2000/svg" width="20.243" height="20.197" viewBox="0 0 20.243 20.197">
  <g id="call-answer" transform="translate(0 -0.394)">
    <g id="Groupe_147" data-name="Groupe 147" transform="translate(0 0.394)">
      <g id="Groupe_146" data-name="Groupe 146" transform="translate(0 0)">
        <path id="Tracé_68" data-name="Tracé 68" d="M19.788,16.368l-3.126-3.127a1.63,1.63,0,0,0-2.3.043L12.789,14.86l-.311-.173a15.673,15.673,0,0,1-3.788-2.74,15.76,15.76,0,0,1-2.745-3.8c-.058-.105-.114-.207-.169-.3L6.832,6.793l.52-.52a1.629,1.629,0,0,0,.042-2.3L4.268.847A1.628,1.628,0,0,0,1.97.89l-.881.886.024.024A5.1,5.1,0,0,0,.387,3.081a5.309,5.309,0,0,0-.323,1.3C-.349,7.8,1.215,10.93,5.459,15.174c5.866,5.866,10.594,5.423,10.8,5.4a5.282,5.282,0,0,0,1.3-.327,5.078,5.078,0,0,0,1.276-.723l.019.017.893-.874A1.631,1.631,0,0,0,19.788,16.368Z" transform="translate(0 -0.394)" fill="#bfbfbf"/>
      </g>
    </g>
  </g>
</svg>
