<svg xmlns="http://www.w3.org/2000/svg" width="42.271" height="55.001" viewBox="0 0 42.271 55.001">
  <g id="clipboard" transform="translate(-86 -34.617)" style="isolation: isolate">
    <path id="Tracé_105" data-name="Tracé 105" d="M123.133,42.124h-5.181V39.758a1.251,1.251,0,0,0-1.257-1.239h-3.889a6.153,6.153,0,0,0-11.453,0H97.511a1.2,1.2,0,0,0-1.192,1.239v2.367H91.138A5.145,5.145,0,0,0,86,47.269V84.524a5.1,5.1,0,0,0,5.138,5.093h31.995a5.1,5.1,0,0,0,5.138-5.093V47.269a5.145,5.145,0,0,0-5.138-5.144ZM98.806,41.005h3.453a1.245,1.245,0,0,0,1.21-.961,3.675,3.675,0,0,1,7.2-.034,1.245,1.245,0,0,0,1.218.994h3.582V46.6H98.806Zm26.979,43.519a2.612,2.612,0,0,1-2.652,2.607H91.138a2.612,2.612,0,0,1-2.652-2.607V47.269a2.655,2.655,0,0,1,2.652-2.658h5.181V47.88a1.17,1.17,0,0,0,1.192,1.207H116.7a1.224,1.224,0,0,0,1.257-1.207V44.611h5.181a2.655,2.655,0,0,1,2.652,2.658Z" transform="translate(0 0)" fill="#2fa6f2"/>
    <path id="Tracé_106" data-name="Tracé 106" d="M144.326,267.733l-4.181,3.95-1.8-1.852a1.243,1.243,0,1,0-1.784,1.732l2.653,2.731a1.243,1.243,0,0,0,1.746.037l5.073-4.793a1.243,1.243,0,0,0-1.708-1.807Z" transform="translate(-43.968 -203.836)" fill="#2fa6f2"/>
    <path id="Tracé_107" data-name="Tracé 107" d="M251.741,293H236.784a1.243,1.243,0,1,0,0,2.487h14.957a1.243,1.243,0,0,0,0-2.487Z" transform="translate(-130.949 -226.259)" fill="#2fa6f2"/>
    <path id="Tracé_108" data-name="Tracé 108" d="M144.326,184.043l-4.181,3.951-1.8-1.852a1.243,1.243,0,0,0-1.784,1.733l2.653,2.731a1.243,1.243,0,0,0,1.746.037l5.073-4.793a1.243,1.243,0,0,0-1.708-1.807Z" transform="translate(-43.968 -130.551)" fill="#2fa6f2"/>
    <path id="Tracé_109" data-name="Tracé 109" d="M251.741,209H236.784a1.243,1.243,0,1,0,0,2.487h14.957a1.243,1.243,0,0,0,0-2.487Z" transform="translate(-130.949 -152.702)" fill="#2fa6f2"/>
    <path id="Tracé_110" data-name="Tracé 110" d="M144.326,351.422l-4.181,3.951-1.8-1.852a1.243,1.243,0,1,0-1.784,1.733l2.653,2.732a1.243,1.243,0,0,0,1.746.037l5.073-4.793a1.243,1.243,0,1,0-1.708-1.807Z" transform="translate(-43.968 -277.12)" fill="#2fa6f2"/>
    <path id="Tracé_111" data-name="Tracé 111" d="M251.741,377H236.784a1.243,1.243,0,1,0,0,2.487h14.957a1.243,1.243,0,0,0,0-2.487Z" transform="translate(-130.949 -299.815)" fill="#2fa6f2"/>
  </g>
</svg>
