<svg xmlns="http://www.w3.org/2000/svg" width="19.393" height="17.923" viewBox="0 0 19.393 17.923">
  <g id="Groupe_8" data-name="Groupe 8" transform="translate(0 1)">
    <path id="Tracé_14" data-name="Tracé 14" d="M7.085,28.723H25.108a.677.677,0,0,0,.685-.685V12.754a.677.677,0,0,0-.685-.685H21.717v-.585a.685.685,0,0,0-1.37,0v.585H11.962v-.585a.685.685,0,1,0-1.37,0v.585H7.085a.677.677,0,0,0-.685.685v15.3a.685.685,0,0,0,.685.668ZM7.77,13.439h2.823v.367a.685.685,0,0,0,1.37,0v-.367h8.385v.367a.685.685,0,0,0,1.37,0v-.367H24.44V15.21H7.77V13.439Zm0,3.14H24.423V27.37H7.77Z" transform="translate(-6.4 -11.8)" fill="#c8cdd3"/>
    <path id="Tracé_15" data-name="Tracé 15" d="M41.44,64.2H31.585a.685.685,0,1,0,0,1.37H41.44a.685.685,0,1,0,0-1.37Z" transform="translate(-26.808 -55.094)" fill="#c8cdd3"/>
    <path id="Tracé_16" data-name="Tracé 16" d="M36.512,84H31.585a.685.685,0,1,0,0,1.37h4.928a.685.685,0,1,0,0-1.37Z" transform="translate(-26.808 -71.587)" fill="#c8cdd3"/>
  </g>
</svg>
