<svg xmlns="http://www.w3.org/2000/svg" width="15.826" height="19.571" viewBox="0 0 15.826 19.571">
  <g id="Groupe_170" data-name="Groupe 170" style="isolation: isolate">
    <path id="Tracé_91" data-name="Tracé 91" d="M59.745,2.345H56.7a2.648,2.648,0,0,0-5.262,0H48.391a2.238,2.238,0,0,0-2.236,2.236V4.7a2.238,2.238,0,0,0,1.413,2.077V17.335A2.238,2.238,0,0,0,49.8,19.571h8.529a2.238,2.238,0,0,0,2.236-2.236V6.773A2.238,2.238,0,0,0,61.981,4.7V4.581A2.238,2.238,0,0,0,59.745,2.345ZM54.068,1.06a1.592,1.592,0,0,1,1.56,1.284H52.509A1.591,1.591,0,0,1,54.068,1.06Zm5.44,16.275a1.177,1.177,0,0,1-1.175,1.176H49.8a1.177,1.177,0,0,1-1.175-1.176V6.931H59.508ZM60.921,4.7a1.177,1.177,0,0,1-1.175,1.176H48.391A1.177,1.177,0,0,1,47.215,4.7V4.581a1.177,1.177,0,0,1,1.175-1.176H59.745a1.177,1.177,0,0,1,1.175,1.176V4.7Z" transform="translate(-46.155)" fill="#bfbfbf"/>
    <path id="Tracé_92" data-name="Tracé 92" d="M158.605,256.6a.53.53,0,0,0,.53-.53V250.1a.53.53,0,1,0-1.06,0v5.97A.53.53,0,0,0,158.605,256.6Z" transform="translate(-153.535 -239.446)" fill="#bfbfbf"/>
    <path id="Tracé_93" data-name="Tracé 93" d="M228.675,256.6a.53.53,0,0,0,.53-.53V250.1a.53.53,0,1,0-1.06,0v5.97A.53.53,0,0,0,228.675,256.6Z" transform="translate(-220.762 -239.446)" fill="#bfbfbf"/>
    <path id="Tracé_94" data-name="Tracé 94" d="M298.744,256.6a.53.53,0,0,0,.53-.53V250.1a.53.53,0,1,0-1.06,0v5.97A.53.53,0,0,0,298.744,256.6Z" transform="translate(-287.989 -239.446)" fill="#bfbfbf"/>
  </g>
</svg>
