<svg xmlns="http://www.w3.org/2000/svg" width="16.158" height="19.981" viewBox="0 0 16.158 19.981">
  <g id="delete-button" transform="translate(-46.155)">
    <g id="Groupe_129" data-name="Groupe 129" transform="translate(46.155)">
      <path id="Tracé_63" data-name="Tracé 63" d="M60.03,2.394H56.92a2.7,2.7,0,0,0-5.372,0h-3.11a2.285,2.285,0,0,0-2.283,2.283v.117A2.285,2.285,0,0,0,47.6,6.914V17.7a2.285,2.285,0,0,0,2.283,2.283h8.707A2.285,2.285,0,0,0,60.87,17.7V6.914a2.285,2.285,0,0,0,1.443-2.121V4.677A2.285,2.285,0,0,0,60.03,2.394Zm-5.8-1.311a1.625,1.625,0,0,1,1.592,1.311H52.642A1.625,1.625,0,0,1,54.234,1.083ZM59.787,17.7a1.2,1.2,0,0,1-1.2,1.2H49.88a1.2,1.2,0,0,1-1.2-1.2V7.077H59.787Zm1.443-12.9a1.2,1.2,0,0,1-1.2,1.2H48.438a1.2,1.2,0,0,1-1.2-1.2V4.677a1.2,1.2,0,0,1,1.2-1.2H60.03a1.2,1.2,0,0,1,1.2,1.2v.117Z" transform="translate(-46.155)" fill="#ea4b69"/>
      <path id="Tracé_64" data-name="Tracé 64" d="M158.616,256.748a.541.541,0,0,0,.541-.541v-6.095a.541.541,0,1,0-1.083,0v6.095A.541.541,0,0,0,158.616,256.748Z" transform="translate(-153.44 -239.234)" fill="#ea4b69"/>
      <path id="Tracé_65" data-name="Tracé 65" d="M228.686,256.748a.541.541,0,0,0,.541-.541v-6.095a.541.541,0,1,0-1.083,0v6.095A.541.541,0,0,0,228.686,256.748Z" transform="translate(-220.607 -239.234)" fill="#ea4b69"/>
      <path id="Tracé_66" data-name="Tracé 66" d="M298.755,256.748a.541.541,0,0,0,.541-.541v-6.095a.541.541,0,1,0-1.083,0v6.095A.541.541,0,0,0,298.755,256.748Z" transform="translate(-287.774 -239.234)" fill="#ea4b69"/>
    </g>
  </g>
</svg>
