<svg xmlns="http://www.w3.org/2000/svg" width="41.465" height="47.389" viewBox="0 0 41.465 47.389">
  <g id="Groupe_311" data-name="Groupe 311" transform="translate(-19.329)">
    <path id="Tracé_46" data-name="Tracé 46" d="M22.291,0H47.456L60.794,13.287v31.14a2.962,2.962,0,0,1-2.962,2.962H22.291a2.962,2.962,0,0,1-2.962-2.962V2.962A2.962,2.962,0,0,1,22.291,0Z" fill="#e2574c"/>
    <path id="Tracé_47" data-name="Tracé 47" d="M216.242,13.491H205.919a2.963,2.963,0,0,1-2.962-2.962V.193Z" transform="translate(-155.491 -0.164)" fill="#b53629"/>
    <path id="Tracé_48" data-name="Tracé 48" d="M107.052,137.125a.861.861,0,0,0,0-1.7h-2.826a.883.883,0,0,0-.86.963v6.944c0,.619.352.963.829.963s.828-.344.828-.963v-1.906h1.709a.8.8,0,0,0,.8-.865.788.788,0,0,0-.8-.841h-1.709v-2.59Zm-9.55-1.7H95.435a.914.914,0,0,0-.96.957v6.956a.911.911,0,0,0,.983.931h2.17a4.024,4.024,0,0,0,4.263-4.3C101.89,137.209,100.294,135.42,97.5,135.42Zm.1,7.129h-1.26v-5.414h1.136c1.719,0,2.467,1.154,2.467,2.746C99.944,141.37,99.209,142.549,97.6,142.549Zm-7.573-7.129H87.98a.861.861,0,0,0-.9.963v6.944a.872.872,0,1,0,1.735,0V141.3H90.1a2.8,2.8,0,0,0,2.892-2.928A2.837,2.837,0,0,0,90.028,135.42Zm-.034,4.25h-1.18v-2.62h1.18a1.316,1.316,0,0,1,0,2.62Z" transform="translate(-57.368 -114.67)" fill="#fff"/>
  </g>
</svg>
