<svg id="Groupe_169" data-name="Groupe 169" xmlns="http://www.w3.org/2000/svg" width="15.057" height="18.4" viewBox="0 0 15.057 18.4">
  <path id="Tracé_89" data-name="Tracé 89" d="M20.2,114.3H6.224a.6.6,0,0,0-.524.653.612.612,0,0,0,.524.653H20.217a.6.6,0,0,0,.524-.653A.612.612,0,0,0,20.2,114.3Z" transform="translate(-5.684 -97.205)" fill="#bfbfbf"/>
  <path id="Tracé_90" data-name="Tracé 90" d="M5.616,18.217l-.016,3.1a.674.674,0,0,0,.191.478.637.637,0,0,0,.462.191l3.088-.016a.637.637,0,0,0,.462-.191L20.466,11.118a.673.673,0,0,0,0-.939L17.41,7.091a.673.673,0,0,0-.939,0L14.338,9.24,5.807,17.755a.709.709,0,0,0-.191.462ZM16.949,8.492,19.1,10.64l-1.21,1.21L15.739,9.7ZM6.937,18.5,14.8,10.64l2.149,2.149L9.086,20.636l-2.165.016L6.937,18.5Z" transform="translate(-5.6 -6.9)" fill="#bfbfbf"/>
</svg>
