<svg xmlns="http://www.w3.org/2000/svg" width="18.417" height="12.99" viewBox="0 0 18.417 12.99">
  <g id="letter" transform="translate(0.1 0.1)">
    <path id="Tracé_34" data-name="Tracé 34" d="M18.217,92.386v-.071a1.166,1.166,0,0,0-.334-.788l-.024-.024a.024.024,0,0,1-.024-.024c-.049-.049-.1-.071-.144-.12-.024,0-.024-.024-.049-.024-.049-.024-.12-.049-.168-.071-.024,0-.024-.024-.049-.024a.685.685,0,0,0-.215-.049h-.049c-.071,0-.168-.024-.263-.024H1.292A1.159,1.159,0,0,0,1,91.19a.083.083,0,0,0-.071.024c-.071.024-.144.024-.19.049-.024,0-.024.024-.049.024-.049.024-.12.049-.168.071L.5,91.383c-.049.024-.1.071-.144.1l-.071.071A1.132,1.132,0,0,0,0,92.2v10.734a1.152,1.152,0,0,0,.454.788,1.4,1.4,0,0,0,.788.239H16.971a.8.8,0,0,0,.239-.024h.049c.071-.024.144-.024.19-.049h.024a1.1,1.1,0,0,0,.741-1.076v-10.4S18.217,92.41,18.217,92.386Zm-1.529-.334L9.158,99.388,7.436,97.715h0l-5.9-5.666H16.688ZM.887,102.593V92.649L6.456,98Zm8.032.5H1.675L7.1,98.647l1.744,1.7a.5.5,0,0,0,.215.12h.146a.394.394,0,0,0,.215-.12l1.649-1.6,5.449,4.351h-7.6Zm8.412-.478L11.739,98.1l5.593-5.449Z" transform="translate(0 -91.166)" fill="#2b93fa" stroke="#2b93fa" stroke-width="0.2"/>
  </g>
</svg>
