<svg xmlns="http://www.w3.org/2000/svg" width="23.515" height="16.51" viewBox="0 0 23.515 16.51">
  <g id="letter" transform="translate(0 -91.166)">
    <path id="Tracé_69" data-name="Tracé 69" d="M23.515,92.74v-.091a1.506,1.506,0,0,0-.431-1.017l-.031-.031a.031.031,0,0,1-.031-.031c-.063-.063-.123-.091-.186-.154-.031,0-.031-.031-.063-.031-.063-.031-.154-.063-.217-.091-.031,0-.031-.031-.063-.031a.884.884,0,0,0-.277-.063h-.063c-.091,0-.217-.031-.34-.031H1.668A1.5,1.5,0,0,0,1.3,91.2a.107.107,0,0,0-.091.031c-.091.031-.186.031-.246.063-.031,0-.031.031-.063.031-.063.031-.154.063-.217.091l-.031.031c-.063.031-.123.091-.186.123l-.091.091A1.461,1.461,0,0,0,0,92.495v13.856a1.487,1.487,0,0,0,.586,1.017,1.8,1.8,0,0,0,1.017.309h20.3a1.031,1.031,0,0,0,.309-.031h.063c.091-.031.186-.031.246-.063h.031a1.424,1.424,0,0,0,.957-1.388V92.769S23.515,92.772,23.515,92.74Zm-1.974-.431-9.719,9.471L9.6,99.62h0L1.977,92.306H21.541Zm-20.4,13.608V93.08l7.188,6.911Zm10.368.646H2.163l7.005-5.74,2.251,2.191a.647.647,0,0,0,.277.154h.189a.508.508,0,0,0,.277-.154l2.128-2.068,7.034,5.617H11.513Zm10.859-.617-7.219-5.831,7.219-7.034Z" fill="#bfbfbf"/>
  </g>
</svg>
