<svg xmlns="http://www.w3.org/2000/svg" width="23.504" height="23.504" viewBox="0 0 23.504 23.504">
  <g id="teamwork" transform="translate(0 0)" style="isolation: isolate">
    <g id="Groupe_148" data-name="Groupe 148" transform="translate(0 0)">
      <path id="Tracé_70" data-name="Tracé 70" d="M20.918,17.168A3.438,3.438,0,0,0,20.75,11.8v0a9.024,9.024,0,0,0-9-9,9.351,9.351,0,0,0-3.489.654s0-.008,0-.011A3.443,3.443,0,1,0,2.586,6.059,4.825,4.825,0,0,0,0,10.329v1.377a.689.689,0,0,0,.689.689H2.781A9.028,9.028,0,0,0,11.752,20.7a10,10,0,0,0,2.211-.24,4.823,4.823,0,0,0-.1.975v1.377a.689.689,0,0,0,.689.689h8.263a.689.689,0,0,0,.689-.689V21.438A4.825,4.825,0,0,0,20.918,17.168Zm-.169-2.616a2.066,2.066,0,1,1-2.066-2.066A2.068,2.068,0,0,1,20.75,14.552ZM4.82,1.377A2.066,2.066,0,1,1,2.754,3.443,2.068,2.068,0,0,1,4.82,1.377Zm-3.443,9.64v-.689a3.443,3.443,0,0,1,6.886,0v.689Zm10.375,8.309a7.631,7.631,0,0,1-7.589-6.932H8.952a.689.689,0,0,0,.689-.689V10.329a4.825,4.825,0,0,0-2.586-4.27,3.469,3.469,0,0,0,.7-.813,7.711,7.711,0,0,1,11.595,5.928,3.441,3.441,0,0,0-2.9,5.994,4.855,4.855,0,0,0-1.811,1.652A7.916,7.916,0,0,1,11.752,19.326Zm10.375,2.8H15.241v-.689a3.443,3.443,0,0,1,6.886,0Z" transform="translate(0 0)" fill="#2b93fa"/>
    </g>
  </g>
</svg>
