<svg xmlns="http://www.w3.org/2000/svg" width="33.408" height="40.7" viewBox="0 0 33.408 40.7">
  <g id="Groupe_311" data-name="Groupe 311" transform="translate(0 -2.671)">
    <path id="Tracé_13" data-name="Tracé 13" stroke="#2fa6f2" d="M7.669,8.51H7.611V33.237h8.7" fill="none" transform="translate(-1.1 3.654)" stroke-linecap="round" stroke-linejoin="round" stroke-width="1" stroke-dasharray="3 2"/>
    <g id="Groupe_9" data-name="Groupe 9" transform="translate(0 2.671)">
      <g id="Ellipse_5" data-name="Ellipse 5" fill="#fff" stroke="#2fa6f2" stroke-width="1">
        <circle cx="6" cy="6" r="6" stroke="none"/>
        <circle cx="6" cy="6" r="5.5" fill="none"/>
      </g>
      <circle id="Ellipse_6" data-name="Ellipse 6" cx="3" cy="3" r="3" transform="translate(3 3)" fill="#2fa6f2"/>
    </g>
    <g id="Groupe_8" data-name="Groupe 8" transform="translate(17.055 28.258)">
      <path id="Tracé_14" data-name="Tracé 14" d="M6.978,25.913h15.2a.571.571,0,0,0,.577-.577V12.448a.571.571,0,0,0-.577-.577H19.316v-.493a.577.577,0,0,0-1.155,0v.493H11.09v-.493a.577.577,0,1,0-1.155,0v.493H6.978a.571.571,0,0,0-.577.577v12.9a.577.577,0,0,0,.577.563Zm.577-12.888h2.38v.31a.577.577,0,0,0,1.155,0v-.31h7.071v.31a.577.577,0,0,0,1.155,0v-.31h2.3v1.493H7.555V13.025Zm0,2.648H21.6v9.1H7.555Z" transform="translate(-6.4 -10.8)" fill="#2fa6f2"/>
      <path id="Tracé_15" data-name="Tracé 15" d="M39.788,64.2h-8.31a.577.577,0,1,0,0,1.155h8.31a.577.577,0,1,0,0-1.155Z" transform="translate(-27.449 -56.678)" fill="#2fa6f2"/>
      <path id="Tracé_16" data-name="Tracé 16" d="M35.633,84H31.477a.577.577,0,1,0,0,1.155h4.155a.577.577,0,0,0,0-1.155Z" transform="translate(-27.449 -73.69)" fill="#2fa6f2"/>
    </g>
  </g>
</svg>
