<svg xmlns="http://www.w3.org/2000/svg" width="29.663" height="29" viewBox="0 0 29.663 29">
  <g id="Groupe_171" data-name="Groupe 171" transform="translate(-0.04 -0.04)">
    <g id="Check" transform="translate(0 0)">
      <g id="Rectangle_21" data-name="Rectangle 21" transform="translate(0.04 0.04)" fill="#fff" stroke="#d0d0d0" stroke-width="1.4">
        <rect width="23" height="23" rx="4" stroke="none"/>
        <rect x="0.7" y="0.7" width="21.6" height="21.6" rx="3.3" fill="none"/>
      </g>
    </g>
    <rect id="Rectangle_40" data-name="Rectangle 40" width="19" height="23" transform="translate(10.04 6.04)" fill="#fff"/>
    <path id="star_3_" data-name="star (3)" d="M15.966,6.289a.849.849,0,0,0-.732-.585l-4.62-.42L8.786,1.008a.851.851,0,0,0-1.565,0L5.395,5.285.774,5.7A.852.852,0,0,0,.291,7.193l3.492,3.063-1.03,4.536a.849.849,0,0,0,1.265.919L8,13.329l3.984,2.382a.851.851,0,0,0,1.266-.919l-1.03-4.536,3.492-3.062A.851.851,0,0,0,15.966,6.289Zm0,0" transform="translate(13.03 8.693)" fill="none" stroke="#0076ff" stroke-width="1.3"/>
  </g>
</svg>
