<svg xmlns="http://www.w3.org/2000/svg" width="22.919" height="17.279" viewBox="0 0 22.919 17.279">
  <g id="visibility" transform="translate(0.27 -63.758)">
    <g id="Groupe_173" data-name="Groupe 173" transform="translate(8.414 69.625)">
      <g id="Groupe_172" data-name="Groupe 172" transform="translate(0 0)">
        <path id="Tracé_96" data-name="Tracé 96" d="M197.959,192.678a.466.466,0,0,0-.659.659,2.8,2.8,0,1,1-3.954,3.954.466.466,0,1,0-.659.659,3.728,3.728,0,1,0,5.273-5.273Z" transform="translate(-192.55 -192.542)" fill="#bfbfbf" stroke="#bfbfbf" stroke-width="0.5"/>
      </g>
    </g>
    <g id="Groupe_175" data-name="Groupe 175" transform="translate(7.457 68.668)">
      <g id="Groupe_174" data-name="Groupe 174" transform="translate(0 0)">
        <path id="Tracé_97" data-name="Tracé 97" d="M175.047,170.723a3.692,3.692,0,0,0-4.379,3.665,3.648,3.648,0,0,0,.065.65.467.467,0,0,0,.458.385.413.413,0,0,0,.082-.007.467.467,0,0,0,.378-.54,2.7,2.7,0,0,1-.05-.488,2.763,2.763,0,0,1,3.284-2.747.466.466,0,1,0,.162-.917Z" transform="translate(-170.668 -170.659)" fill="#bfbfbf" stroke="#bfbfbf" stroke-width="0.5"/>
      </g>
    </g>
    <g id="Groupe_177" data-name="Groupe 177" transform="translate(5.83 67.174)">
      <g id="Groupe_176" data-name="Groupe 176" transform="translate(0 0)">
        <path id="Tracé_98" data-name="Tracé 98" d="M149.867,141.383a22.644,22.644,0,0,0-6.105-4.87.466.466,0,0,0-.428.829,21.906,21.906,0,0,1,5.551,4.342c-1.111,1.2-5.484,5.593-10.094,5.593a10.748,10.748,0,0,1-4.687-1.123.466.466,0,1,0-.4.839,11.656,11.656,0,0,0,5.092,1.217c5.743,0,10.861-5.97,11.077-6.224A.466.466,0,0,0,149.867,141.383Z" transform="translate(-133.435 -136.461)" fill="#bfbfbf" stroke="#bfbfbf" stroke-width="0.5"/>
      </g>
    </g>
    <g id="Groupe_179" data-name="Groupe 179" transform="translate(0 65.872)">
      <g id="Groupe_178" data-name="Groupe 178" transform="translate(0 0)">
        <path id="Tracé_99" data-name="Tracé 99" d="M14.245,107.2a9.625,9.625,0,0,0-3.059-.537c-5.743,0-10.861,5.97-11.077,6.224a.466.466,0,0,0-.026.568,17.305,17.305,0,0,0,4.276,4.054A.463.463,0,0,0,5,117.374a.465.465,0,0,0-.131-.645,17.047,17.047,0,0,1-3.806-3.519c1.073-1.165,5.475-5.619,10.118-5.619a8.725,8.725,0,0,1,2.761.488.46.46,0,0,0,.59-.293A.465.465,0,0,0,14.245,107.2Z" transform="translate(0 -106.659)" fill="#bfbfbf" stroke="#bfbfbf" stroke-width="0.5"/>
      </g>
    </g>
    <g id="Groupe_181" data-name="Groupe 181" transform="translate(2.796 64.008)">
      <g id="Groupe_180" data-name="Groupe 180" transform="translate(0 0)">
        <path id="Tracé_100" data-name="Tracé 100" d="M80.639,64.144a.466.466,0,0,0-.659,0L64.132,79.992a.466.466,0,0,0,.659.659L80.639,64.8A.466.466,0,0,0,80.639,64.144Z" transform="translate(-63.996 -64.008)" fill="#bfbfbf" stroke="#bfbfbf" stroke-width="0.5"/>
      </g>
    </g>
  </g>
</svg>
