<svg xmlns="http://www.w3.org/2000/svg" width="21.447" height="13.669" viewBox="0 0 21.447 13.669">
  <g id="View" transform="translate(0 -92.835)">
    <g id="Groupe_165" data-name="Groupe 165" transform="translate(0 92.835)">
      <g id="Groupe_164" data-name="Groupe 164" transform="translate(0 0)">
        <path id="Tracé_87" data-name="Tracé 87" d="M21.311,99.253c-.192-.262-4.757-6.418-10.587-6.418S.327,98.99.136,99.252a.708.708,0,0,0,0,.835c.191.262,4.757,6.418,10.587,6.418s10.4-6.156,10.587-6.417A.707.707,0,0,0,21.311,99.253ZM10.723,105.09c-4.295,0-8.015-4.086-9.116-5.421,1.1-1.337,4.812-5.42,9.116-5.42s8.014,4.085,9.116,5.421C18.739,101.007,15.027,105.09,10.723,105.09Z" transform="translate(0 -92.835)" fill="#2fa6f2"/>
      </g>
    </g>
    <g id="Groupe_167" data-name="Groupe 167" transform="translate(6.481 95.427)">
      <g id="Groupe_166" data-name="Groupe 166" transform="translate(0 0)">
        <path id="Tracé_88" data-name="Tracé 88" d="M158.964,154.725a4.242,4.242,0,1,0,4.242,4.242A4.247,4.247,0,0,0,158.964,154.725Zm0,7.07a2.828,2.828,0,1,1,2.828-2.828A2.831,2.831,0,0,1,158.964,161.8Z" transform="translate(-154.722 -154.725)" fill="#2fa6f2"/>
      </g>
    </g>
  </g>
</svg>
