<svg xmlns="http://www.w3.org/2000/svg" width="50.286" height="32.296" viewBox="0 0 50.286 32.296">
  <path id="Tracé_35" data-name="Tracé 35" d="M154.959,414.018l-8.523,8.523-3.5,3.5-.023.023-4.084-4.086,3.518-3.518,12.707-12.708c2.692-2.693-1.375-6.752-4.068-4.068l-11.543,11.543h0l-7.361,7.362-3.5,3.5-.022.022h0l-1.952,1.952-.022-.023-3.5-3.5-8.522-8.522c-2.69-2.691-6.757,1.37-4.068,4.068l13.916,13.906c.051.057.1.115.161.172a3.27,3.27,0,0,0,1.341.822,2.449,2.449,0,0,0,2.2-.378l.09-.054.037-.037a3.976,3.976,0,0,0,.37-.326l6.147-6.147,6.147,6.147a3.878,3.878,0,0,0,.371.326l.036.037c.028.018.057.036.09.054a2.447,2.447,0,0,0,2.2.378,3.283,3.283,0,0,0,1.342-.822c.055-.056.11-.114.161-.172l13.906-13.906c2.692-2.694-1.374-6.755-4.068-4.068Zm-36.7-4.486.033-.031c-1.814-2.523,1.479-5.813,4-4l.033-.031,6.3,6.3c2.692,2.692-1.373,6.753-4.068,4.064l-1.035-1.045h0l-4.865-4.865h0Z" transform="translate(-109.625 -400.799)" fill="#e0e1e2" fill-rule="evenodd"/>
</svg>
